<svg width="823" height="158" viewBox="0 0 823 158" fill="none" xmlns="http://www.w3.org/2000/svg">
<path d="M0.184305 155V9.54545H35.3406V126.449H95.8519V155H0.184305ZM114.051 155V45.9091H148.782V155H114.051ZM131.452 33.196C126.575 33.196 122.385 31.5862 118.881 28.3665C115.377 25.0994 113.625 21.1695 113.625 16.5767C113.625 12.0312 115.377 8.14867 118.881 4.92898C122.385 1.66193 126.575 0.0284004 131.452 0.0284004C136.376 0.0284004 140.567 1.66193 144.023 4.92898C147.527 8.14867 149.279 12.0312 149.279 16.5767C149.279 21.1695 147.527 25.0994 144.023 28.3665C140.567 31.5862 136.376 33.196 131.452 33.196ZM232.464 45.9091V71.4773H163.643V45.9091H232.464ZM178.061 19.7727H212.791V120.696C212.791 122.827 213.122 124.555 213.785 125.881C214.495 127.159 215.513 128.082 216.839 128.651C218.165 129.171 219.751 129.432 221.598 129.432C222.923 129.432 224.32 129.313 225.788 129.077C227.303 128.793 228.44 128.556 229.197 128.366L234.453 153.438C232.796 153.911 230.452 154.503 227.422 155.213C224.439 155.923 220.864 156.373 216.697 156.562C208.553 156.941 201.569 155.994 195.745 153.722C189.969 151.402 185.542 147.803 182.464 142.926C179.434 138.049 177.966 131.918 178.061 124.531V19.7727ZM300.007 157.06C288.596 157.06 278.747 154.811 270.461 150.312C262.223 145.767 255.878 139.304 251.427 130.923C247.024 122.495 244.822 112.481 244.822 100.881C244.822 89.6117 247.047 79.7633 251.498 71.3352C255.949 62.8598 262.223 56.2784 270.319 51.5909C278.416 46.8561 287.957 44.4886 298.941 44.4886C306.707 44.4886 313.809 45.696 320.248 48.1108C326.688 50.5256 332.251 54.1004 336.939 58.8352C341.626 63.5701 345.272 69.4176 347.876 76.3778C350.48 83.2907 351.782 91.2216 351.782 100.17V108.835H256.967V88.6648H319.467C319.42 84.9716 318.544 81.6809 316.839 78.7926C315.135 75.9044 312.791 73.6553 309.808 72.0455C306.872 70.3883 303.487 69.5597 299.652 69.5597C295.769 69.5597 292.289 70.4356 289.211 72.1875C286.134 73.892 283.695 76.2358 281.896 79.2188C280.097 82.1544 279.15 85.4924 279.055 89.233V109.759C279.055 114.209 279.931 118.116 281.683 121.477C283.435 124.792 285.921 127.372 289.14 129.219C292.36 131.065 296.195 131.989 300.646 131.989C303.724 131.989 306.517 131.562 309.027 130.71C311.536 129.858 313.69 128.603 315.49 126.946C317.289 125.289 318.638 123.253 319.538 120.838L351.427 121.761C350.101 128.911 347.19 135.137 342.691 140.44C338.241 145.696 332.393 149.792 325.149 152.727C317.904 155.616 309.524 157.06 300.007 157.06ZM369.52 155V9.54545H468.81V38.0966H404.676V67.9261H462.489V96.5483H404.676V155H369.52ZM529.428 157.06C517.97 157.06 508.121 154.716 499.882 150.028C491.691 145.294 485.37 138.712 480.919 130.284C476.516 121.809 474.314 111.984 474.314 100.81C474.314 89.5881 476.516 79.7633 480.919 71.3352C485.37 62.8598 491.691 56.2784 499.882 51.5909C508.121 46.8561 517.97 44.4886 529.428 44.4886C540.886 44.4886 550.711 46.8561 558.902 51.5909C567.141 56.2784 573.462 62.8598 577.865 71.3352C582.316 79.7633 584.542 89.5881 584.542 100.81C584.542 111.984 582.316 121.809 577.865 130.284C573.462 138.712 567.141 145.294 558.902 150.028C550.711 154.716 540.886 157.06 529.428 157.06ZM529.641 130.852C533.808 130.852 537.335 129.574 540.223 127.017C543.112 124.46 545.313 120.909 546.828 116.364C548.391 111.818 549.172 106.562 549.172 100.597C549.172 94.536 548.391 89.233 546.828 84.6875C545.313 80.142 543.112 76.5909 540.223 74.0341C537.335 71.4773 533.808 70.1989 529.641 70.1989C525.332 70.1989 521.686 71.4773 518.703 74.0341C515.768 76.5909 513.519 80.142 511.956 84.6875C510.441 89.233 509.684 94.536 509.684 100.597C509.684 106.562 510.441 111.818 511.956 116.364C513.519 120.909 515.768 124.46 518.703 127.017C521.686 129.574 525.332 130.852 529.641 130.852ZM637.063 9.54545V155H602.333V9.54545H637.063ZM659.169 155V45.9091H693.899V155H659.169ZM676.569 33.196C671.692 33.196 667.502 31.5862 663.998 28.3665C660.494 25.0994 658.743 21.1695 658.743 16.5767C658.743 12.0312 660.494 8.14867 663.998 4.92898C667.502 1.66193 671.692 0.0284004 676.569 0.0284004C681.493 0.0284004 685.684 1.66193 689.14 4.92898C692.644 8.14867 694.396 12.0312 694.396 16.5767C694.396 21.1695 692.644 25.0994 689.14 28.3665C685.684 31.5862 681.493 33.196 676.569 33.196ZM766.928 157.06C755.47 157.06 745.621 154.716 737.382 150.028C729.191 145.294 722.87 138.712 718.419 130.284C714.016 121.809 711.814 111.984 711.814 100.81C711.814 89.5881 714.016 79.7633 718.419 71.3352C722.87 62.8598 729.191 56.2784 737.382 51.5909C745.621 46.8561 755.47 44.4886 766.928 44.4886C778.386 44.4886 788.211 46.8561 796.402 51.5909C804.641 56.2784 810.962 62.8598 815.365 71.3352C819.816 79.7633 822.042 89.5881 822.042 100.81C822.042 111.984 819.816 121.809 815.365 130.284C810.962 138.712 804.641 145.294 796.402 150.028C788.211 154.716 778.386 157.06 766.928 157.06ZM767.141 130.852C771.308 130.852 774.835 129.574 777.723 127.017C780.612 124.46 782.813 120.909 784.328 116.364C785.891 111.818 786.672 106.562 786.672 100.597C786.672 94.536 785.891 89.233 784.328 84.6875C782.813 80.142 780.612 76.5909 777.723 74.0341C774.835 71.4773 771.308 70.1989 767.141 70.1989C762.832 70.1989 759.186 71.4773 756.203 74.0341C753.268 76.5909 751.019 80.142 749.456 84.6875C747.941 89.233 747.184 94.536 747.184 100.597C747.184 106.562 747.941 111.818 749.456 116.364C751.019 120.909 753.268 124.46 756.203 127.017C759.186 129.574 762.832 130.852 767.141 130.852Z" fill="black"/>
</svg>
